<?xml version="1.0" encoding="utf-8"?>
<!-- Generator: Adobe Illustrator 22.0.1, SVG Export Plug-In . SVG Version: 6.00 Build 0)  -->
<svg version="1.1" id="Capa_1" xmlns="http://www.w3.org/2000/svg" xmlns:xlink="http://www.w3.org/1999/xlink" x="0px" y="0px"
	 viewBox="0 0 31 49" style="enable-background:new 0 0 31 49;" xml:space="preserve">
<style type="text/css">
	.st0{fill:#7C0E0E;}
</style>
<title>lock</title>
<desc>Created with Sketch.</desc>
<g id="Page-1">
	<g id="icons" transform="translate(-35.000000, -31.000000)">
		<path id="lock" class="st0" d="M59.3,52.3c-2.5-1.9-5.7-3.1-9.1-3.1c-3.4,0-6.6,1.1-9.1,3.1v-9.1c0-5,4.1-9.1,9.1-9.1
			s9.1,4.1,9.1,9.1V52.3L59.3,52.3z M51.7,68.9c0,0.8-0.7,1.5-1.5,1.5s-1.5-0.7-1.5-1.5v-6.1c0-0.8,0.7-1.5,1.5-1.5s1.5,0.7,1.5,1.5
			V68.9L51.7,68.9z M62.3,55.3V43.1c0-6.7-5.4-12.1-12.1-12.1S38,36.4,38,43.1v12.2c-1.9,2.5-3,5.7-3,9.1c0,8.4,6.8,15.2,15.2,15.2
			s15.2-6.8,15.2-15.2C65.3,61,64.2,57.8,62.3,55.3L62.3,55.3z"/>
	</g>
</g>
</svg>
